<mxfile host="app.diagrams.net" agent="Mozilla/5.0 (Macintosh; Intel Mac OS X 10_15_7) AppleWebKit/537.36 (KHTML, like Gecko) Chrome/130.0.0.0 Safari/537.36" version="25.0.3">
  <diagram name="Page-1" id="ODLYFSY2JuUzLaGeg_rQ">
    <mxGraphModel dx="648" dy="381" grid="1" gridSize="10" guides="1" tooltips="1" connect="1" arrows="1" fold="1" page="1" pageScale="1" pageWidth="850" pageHeight="1100" math="0" shadow="0">
      <root>
        <mxCell id="0" />
        <mxCell id="1" parent="0" />
        <mxCell id="fDMz5_kEwvDLhSqUUplV-4" style="edgeStyle=orthogonalEdgeStyle;rounded=0;orthogonalLoop=1;jettySize=auto;html=1;exitX=0.5;exitY=1;exitDx=0;exitDy=0;entryX=0.5;entryY=0;entryDx=0;entryDy=0;" edge="1" parent="1" source="fDMz5_kEwvDLhSqUUplV-1" target="fDMz5_kEwvDLhSqUUplV-3">
          <mxGeometry relative="1" as="geometry" />
        </mxCell>
        <mxCell id="fDMz5_kEwvDLhSqUUplV-1" value="Level.update" style="rounded=0;whiteSpace=wrap;html=1;" vertex="1" parent="1">
          <mxGeometry x="210" y="200" width="120" height="60" as="geometry" />
        </mxCell>
        <mxCell id="fDMz5_kEwvDLhSqUUplV-9" style="edgeStyle=orthogonalEdgeStyle;rounded=0;orthogonalLoop=1;jettySize=auto;html=1;entryX=0.5;entryY=0;entryDx=0;entryDy=0;" edge="1" parent="1" source="fDMz5_kEwvDLhSqUUplV-3" target="fDMz5_kEwvDLhSqUUplV-8">
          <mxGeometry relative="1" as="geometry" />
        </mxCell>
        <mxCell id="fDMz5_kEwvDLhSqUUplV-3" value="EventHandler.handle()" style="rounded=0;whiteSpace=wrap;html=1;" vertex="1" parent="1">
          <mxGeometry x="205" y="300" width="130" height="60" as="geometry" />
        </mxCell>
        <mxCell id="fDMz5_kEwvDLhSqUUplV-8" value="Handle Player input and other events" style="rounded=0;whiteSpace=wrap;html=1;" vertex="1" parent="1">
          <mxGeometry x="360" y="360" width="130" height="60" as="geometry" />
        </mxCell>
        <mxCell id="fDMz5_kEwvDLhSqUUplV-10" value="EventHandler.handle()" style="rounded=0;whiteSpace=wrap;html=1;" vertex="1" parent="1">
          <mxGeometry x="200" y="400" width="130" height="60" as="geometry" />
        </mxCell>
      </root>
    </mxGraphModel>
  </diagram>
</mxfile>
